<svg width="480" height="120" viewBox="0 0 480 120" fill="none" xmlns="http://www.w3.org/2000/svg">
  <!-- ADE icon mark (green) -->
  <path d="M86.5 40.6V7.2C86.5 3.2 84.2 0.7 80.3 0.7H53.9C49.7 0.7 45.5 1.5 41.7 3.1C37.9 4.7 34.4 7.1 31.5 10.1L31.3 10.3C27.4 14.3 24.6 19.2 23.2 24.6C25.7 23.9 28.3 23.6 30.9 23.5C37.8 23.4 44.6 25.7 50.1 29.9C55 33.7 58.8 38.9 61.1 44.8C63.2 51 63.5 57.6 61.9 63.7C67.2 62.3 72.1 59.5 76.0 55.6L76.2 55.4C79.1 52.5 81.5 49 83.1 45.2C84.7 41.3 85.5 37.1 85.5 32.9H86.5Z" fill="#18E299"/>
  <path d="M22.5 32.3C22.5 24.1 25.8 16.3 31.5 10.2L9.4 32.4C9.3 32.5 9.2 32.5 9.2 32.6C3.8 38 0.6 45.2 0.1 52.8C-0.4 60 1.4 67 5.4 72.9C5.7 73.5 6.7 73.6 7.3 73.1L20.8 59.6C25.0 55.5 26.3 49.2 24.3 43.5C23.0 39.9 22.4 36.2 22.5 32.3Z" fill="#0C8C5E"/>
  <path d="M76.0 55.5C71.7 59.6 66.5 62.4 60.7 63.8C54.9 65.0 48.9 64.7 43.3 62.7C43.3 62.7 43.3 62.7 43.2 62.7C37.6 60.6 31.4 61.9 27.2 66.1L13.7 79.6C13.1 80.2 13.2 81.1 13.9 81.6C19.7 85.5 26.7 87.4 33.8 87.0C41.4 86.5 48.5 83.2 53.8 77.9L54.0 77.7L76.0 55.7V55.5Z" fill="#0C8C5E"/>
  <!-- "ADE" text -->
  <path d="M138.4 82H126.8L122.2 69.6H103.4L98.8 82H87.6L106.6 32H119.6L138.4 82ZM119.2 60.4L112.8 42.8L106.4 60.4H119.2Z" fill="#0F172A"/>
  <path d="M158.8 82H143.6V32H158.8C164.4 32 169.2 33.1 173.2 35.3C177.2 37.5 180.3 40.6 182.5 44.6C184.7 48.6 185.8 53.2 185.8 58.4V55.6C185.8 60.8 184.7 65.4 182.5 69.4C180.3 73.4 177.2 76.5 173.2 78.7C169.2 80.9 164.4 82 158.8 82ZM155.2 72.4H158.4C161.6 72.4 164.4 71.7 166.8 70.3C169.2 68.9 171.1 66.9 172.5 64.3C173.9 61.7 174.6 58.6 174.6 55C174.6 51.4 173.9 48.3 172.5 45.7C171.1 43.1 169.2 41.1 166.8 39.7C164.4 38.3 161.6 37.6 158.4 37.6H155.2V72.4Z" fill="#0F172A"/>
  <path d="M195.2 82V32H227.2V41.6H206.8V52.4H224.8V62H206.8V72.4H227.2V82H195.2Z" fill="#0F172A"/>
</svg>
