<svg xmlns="http://www.w3.org/2000/svg" width="1200" height="750" viewBox="0 0 1200 750" fill="none">
  <defs>
    <linearGradient id="bg" x1="130" y1="60" x2="1070" y2="690" gradientUnits="userSpaceOnUse">
      <stop stop-color="#0B1020" />
      <stop offset="1" stop-color="#20122A" />
    </linearGradient>
    <linearGradient id="panel" x1="260" y1="180" x2="940" y2="590" gradientUnits="userSpaceOnUse">
      <stop stop-color="#101F46" />
      <stop offset="1" stop-color="#0C1329" />
    </linearGradient>
    <linearGradient id="acc" x1="420" y1="260" x2="840" y2="520" gradientUnits="userSpaceOnUse">
      <stop stop-color="#B4FF7A" />
      <stop offset="1" stop-color="#55D3FF" />
    </linearGradient>
    <filter id="soft" x="-20%" y="-20%" width="140%" height="140%">
      <feDropShadow dx="0" dy="24" stdDeviation="26" flood-color="#000" flood-opacity="0.35" />
    </filter>
  </defs>

  <rect width="1200" height="750" rx="36" fill="url(#bg)" />

  <g filter="url(#soft)">
    <rect x="150" y="140" width="900" height="470" rx="28" fill="url(#panel)" stroke="rgba(234,242,255,0.14)" />

    <rect x="210" y="210" width="360" height="120" rx="22" fill="rgba(234,242,255,0.06)" />
    <rect x="210" y="360" width="360" height="120" rx="22" fill="rgba(234,242,255,0.06)" />
    <rect x="210" y="510" width="360" height="70" rx="22" fill="rgba(234,242,255,0.06)" />

    <rect x="630" y="238" width="360" height="300" rx="22" fill="rgba(234,242,255,0.05)" />

    <path
      d="M256 252h210M256 292h260"
      stroke="rgba(234,242,255,0.22)"
      stroke-width="10"
      stroke-linecap="round"
    />
    <path
      d="M256 402h230M256 442h270"
      stroke="rgba(234,242,255,0.22)"
      stroke-width="10"
      stroke-linecap="round"
    />
    <path
      d="M256 548h250"
      stroke="rgba(234,242,255,0.22)"
      stroke-width="10"
      stroke-linecap="round"
    />

    <path
      d="M570 270h62c26 0 46 20 46 46v40c0 26-20 46-46 46h-62"
      stroke="url(#acc)"
      stroke-width="10"
      stroke-linecap="round"
    />
    <path
      d="M570 420h62c26 0 46 20 46 46v22c0 26-20 46-46 46h-62"
      stroke="url(#acc)"
      stroke-width="10"
      stroke-linecap="round"
    />
    <path
      d="M678 352l-18-18M678 352l-18 18"
      stroke="url(#acc)"
      stroke-width="10"
      stroke-linecap="round"
    />

    <circle cx="810" cy="390" r="96" fill="rgba(234,242,255,0.06)" stroke="rgba(234,242,255,0.18)" stroke-width="6" />
    <path d="M810 336v56" stroke="url(#acc)" stroke-width="12" stroke-linecap="round" />
    <path d="M810 392h44" stroke="url(#acc)" stroke-width="12" stroke-linecap="round" />
    <path
      d="M740 528h140"
      stroke="rgba(234,242,255,0.18)"
      stroke-width="10"
      stroke-linecap="round"
    />
  </g>
</svg>

