<svg xmlns="http://www.w3.org/2000/svg" width="1200" height="750" viewBox="0 0 1200 750" fill="none">
  <defs>
    <linearGradient id="bg" x1="140" y1="70" x2="1060" y2="670" gradientUnits="userSpaceOnUse">
      <stop stop-color="#0B1020" />
      <stop offset="1" stop-color="#1B1332" />
    </linearGradient>
    <linearGradient id="panel" x1="240" y1="160" x2="960" y2="590" gradientUnits="userSpaceOnUse">
      <stop stop-color="#101F46" />
      <stop offset="1" stop-color="#0C1329" />
    </linearGradient>
    <linearGradient id="hot" x1="420" y1="240" x2="840" y2="520" gradientUnits="userSpaceOnUse">
      <stop stop-color="#FFB86B" />
      <stop offset="1" stop-color="#FF4D4D" />
    </linearGradient>
    <filter id="soft" x="-20%" y="-20%" width="140%" height="140%">
      <feDropShadow dx="0" dy="24" stdDeviation="26" flood-color="#000" flood-opacity="0.35" />
    </filter>
  </defs>

  <rect width="1200" height="750" rx="36" fill="url(#bg)" />

  <g filter="url(#soft)">
    <rect x="150" y="140" width="900" height="470" rx="28" fill="url(#panel)" stroke="rgba(234,242,255,0.14)" />
    <rect x="190" y="190" width="360" height="380" rx="22" fill="rgba(234,242,255,0.05)" />
    <rect x="590" y="190" width="420" height="380" rx="22" fill="rgba(234,242,255,0.05)" />

    <path
      d="M230 240h240M230 290h300M230 340h270M230 390h290M230 440h260"
      stroke="rgba(234,242,255,0.22)"
      stroke-width="10"
      stroke-linecap="round"
    />
    <path
      d="M630 240h310M630 290h260M630 340h300M630 390h240M630 440h280"
      stroke="rgba(234,242,255,0.22)"
      stroke-width="10"
      stroke-linecap="round"
    />

    <path
      d="M540 280c70-80 160-86 250-20"
      stroke="url(#hot)"
      stroke-width="8"
      stroke-linecap="round"
      opacity="0.92"
    />
    <path
      d="M540 420c100-34 180-18 250 50"
      stroke="url(#hot)"
      stroke-width="8"
      stroke-linecap="round"
      opacity="0.92"
    />
    <circle cx="540" cy="280" r="12" fill="#FFB86B" />
    <circle cx="790" cy="260" r="12" fill="#FF4D4D" />
    <circle cx="540" cy="420" r="12" fill="#FFB86B" />
    <circle cx="790" cy="470" r="12" fill="#FF4D4D" />

    <g opacity="0.98">
      <path
        d="M600 178l44 76h-88l44-76z"
        fill="rgba(234,242,255,0.10)"
        stroke="url(#hot)"
        stroke-width="6"
        stroke-linejoin="round"
      />
      <path d="M600 204v22" stroke="url(#hot)" stroke-width="8" stroke-linecap="round" />
      <path d="M600 236h0" stroke="url(#hot)" stroke-width="10" stroke-linecap="round" />
    </g>
  </g>
</svg>

