<svg xmlns="http://www.w3.org/2000/svg" width="1200" height="750" viewBox="0 0 1200 750" fill="none">
  <defs>
    <linearGradient id="bg" x1="120" y1="60" x2="1080" y2="690" gradientUnits="userSpaceOnUse">
      <stop stop-color="#0B1020" />
      <stop offset="1" stop-color="#0F1F3F" />
    </linearGradient>
    <linearGradient id="panel" x1="240" y1="160" x2="960" y2="590" gradientUnits="userSpaceOnUse">
      <stop stop-color="#101F46" />
      <stop offset="1" stop-color="#0C1329" />
    </linearGradient>
    <linearGradient id="acc" x1="350" y1="260" x2="920" y2="520" gradientUnits="userSpaceOnUse">
      <stop stop-color="#55D3FF" />
      <stop offset="1" stop-color="#1B76FF" />
    </linearGradient>
    <filter id="soft" x="-20%" y="-20%" width="140%" height="140%">
      <feDropShadow dx="0" dy="24" stdDeviation="26" flood-color="#000" flood-opacity="0.35" />
    </filter>
  </defs>

  <rect width="1200" height="750" rx="36" fill="url(#bg)" />

  <g filter="url(#soft)">
    <rect x="150" y="140" width="900" height="470" rx="28" fill="url(#panel)" stroke="rgba(234,242,255,0.14)" />
    <rect x="190" y="190" width="260" height="380" rx="22" fill="rgba(234,242,255,0.06)" />
    <rect x="470" y="190" width="540" height="380" rx="22" fill="rgba(234,242,255,0.05)" />

    <path
      d="M220 240h180M220 284h150M220 328h170M220 372h140M220 416h160M220 460h120"
      stroke="rgba(234,242,255,0.22)"
      stroke-width="10"
      stroke-linecap="round"
    />
    <path d="M220 284h92" stroke="url(#acc)" stroke-width="10" stroke-linecap="round" />

    <rect x="500" y="222" width="460" height="32" rx="10" fill="rgba(234,242,255,0.07)" />
    <path
      d="M520 312h420M520 352h380M520 392h410M520 432h340M520 472h400"
      stroke="rgba(234,242,255,0.20)"
      stroke-width="10"
      stroke-linecap="round"
    />
    <path d="M520 352h210" stroke="url(#acc)" stroke-width="10" stroke-linecap="round" />
    <path d="M520 432h160" stroke="url(#acc)" stroke-width="10" stroke-linecap="round" />

    <rect x="190" y="206" width="260" height="18" rx="9" fill="rgba(234,242,255,0.08)" />
    <rect x="470" y="206" width="540" height="18" rx="9" fill="rgba(234,242,255,0.06)" />
  </g>
</svg>

