<svg xmlns="http://www.w3.org/2000/svg" width="1200" height="750" viewBox="0 0 1200 750" fill="none">
  <defs>
    <linearGradient id="bg" x1="110" y1="70" x2="1090" y2="680" gradientUnits="userSpaceOnUse">
      <stop stop-color="#0B1020" />
      <stop offset="1" stop-color="#1B1B3A" />
    </linearGradient>
    <linearGradient id="panel" x1="220" y1="170" x2="980" y2="600" gradientUnits="userSpaceOnUse">
      <stop stop-color="#101F46" />
      <stop offset="1" stop-color="#0C1329" />
    </linearGradient>
    <linearGradient id="acc" x1="320" y1="260" x2="880" y2="520" gradientUnits="userSpaceOnUse">
      <stop stop-color="#55D3FF" />
      <stop offset="1" stop-color="#B4FF7A" />
    </linearGradient>
    <filter id="soft" x="-20%" y="-20%" width="140%" height="140%">
      <feDropShadow dx="0" dy="24" stdDeviation="26" flood-color="#000" flood-opacity="0.35" />
    </filter>
  </defs>

  <rect width="1200" height="750" rx="36" fill="url(#bg)" />

  <g filter="url(#soft)">
    <rect x="150" y="140" width="900" height="470" rx="28" fill="url(#panel)" stroke="rgba(234,242,255,0.14)" />

    <path
      d="M300 280c120 0 170 60 270 60s150-70 260-70 160 110 240 110"
      stroke="rgba(234,242,255,0.18)"
      stroke-width="8"
      stroke-linecap="round"
    />
    <path
      d="M320 460c120-80 200-70 280-20s150 70 240 26 140-110 220-110"
      stroke="rgba(234,242,255,0.18)"
      stroke-width="8"
      stroke-linecap="round"
    />
    <path
      d="M340 320c90 110 170 130 250 84s170-170 260-140 120 150 200 170"
      stroke="url(#acc)"
      stroke-width="8"
      stroke-linecap="round"
      opacity="0.9"
    />

    <g opacity="0.98">
      <circle cx="300" cy="280" r="22" fill="rgba(234,242,255,0.08)" stroke="rgba(234,242,255,0.20)" />
      <circle cx="570" cy="340" r="22" fill="rgba(234,242,255,0.08)" stroke="rgba(234,242,255,0.20)" />
      <circle cx="830" cy="270" r="22" fill="rgba(234,242,255,0.08)" stroke="rgba(234,242,255,0.20)" />
      <circle cx="1070" cy="380" r="22" fill="rgba(234,242,255,0.08)" stroke="rgba(234,242,255,0.20)" />

      <circle cx="320" cy="460" r="22" fill="rgba(234,242,255,0.08)" stroke="rgba(234,242,255,0.20)" />
      <circle cx="600" cy="440" r="22" fill="rgba(234,242,255,0.08)" stroke="rgba(234,242,255,0.20)" />
      <circle cx="840" cy="466" r="22" fill="rgba(234,242,255,0.08)" stroke="rgba(234,242,255,0.20)" />
      <circle cx="1060" cy="356" r="22" fill="rgba(234,242,255,0.08)" stroke="rgba(234,242,255,0.20)" />

      <path d="M300 280h0" stroke="#55D3FF" stroke-width="14" stroke-linecap="round" />
      <path d="M830 270h0" stroke="#55D3FF" stroke-width="14" stroke-linecap="round" />
      <path d="M840 466h0" stroke="#B4FF7A" stroke-width="14" stroke-linecap="round" />
    </g>
  </g>
</svg>

