<svg xmlns="http://www.w3.org/2000/svg" width="1200" height="750" viewBox="0 0 1200 750" fill="none">
  <defs>
    <linearGradient id="bg" x1="80" y1="60" x2="1120" y2="690" gradientUnits="userSpaceOnUse">
      <stop stop-color="#0E1630" />
      <stop offset="1" stop-color="#0B1020" />
    </linearGradient>
    <linearGradient id="card" x1="220" y1="120" x2="920" y2="620" gradientUnits="userSpaceOnUse">
      <stop stop-color="#101F46" />
      <stop offset="1" stop-color="#0C1329" />
    </linearGradient>
    <linearGradient id="acc" x1="320" y1="200" x2="920" y2="560" gradientUnits="userSpaceOnUse">
      <stop stop-color="#55D3FF" />
      <stop offset="1" stop-color="#1B76FF" />
    </linearGradient>
    <filter id="soft" x="-20%" y="-20%" width="140%" height="140%">
      <feDropShadow dx="0" dy="24" stdDeviation="26" flood-color="#000" flood-opacity="0.35" />
    </filter>
  </defs>

  <rect x="0" y="0" width="1200" height="750" rx="36" fill="url(#bg)" />

  <g opacity="0.35">
    <path d="M120 160H1080" stroke="#EAF2FF" stroke-width="1.2" />
    <path d="M120 260H1080" stroke="#EAF2FF" stroke-width="1.2" />
    <path d="M120 360H1080" stroke="#EAF2FF" stroke-width="1.2" />
    <path d="M120 460H1080" stroke="#EAF2FF" stroke-width="1.2" />
    <path d="M120 560H1080" stroke="#EAF2FF" stroke-width="1.2" />
  </g>

  <g filter="url(#soft)">
    <rect x="140" y="120" width="920" height="510" rx="28" fill="url(#card)" stroke="rgba(234,242,255,0.14)" />

    <rect x="178" y="168" width="210" height="414" rx="18" fill="rgba(234,242,255,0.06)" />
    <rect x="416" y="168" width="390" height="414" rx="18" fill="rgba(234,242,255,0.05)" />
    <rect x="828" y="168" width="204" height="414" rx="18" fill="rgba(234,242,255,0.06)" />

    <g opacity="0.92">
      <rect x="202" y="196" width="162" height="60" rx="14" fill="rgba(234,242,255,0.08)" />
      <rect x="202" y="276" width="162" height="60" rx="14" fill="rgba(234,242,255,0.08)" />
      <rect x="202" y="356" width="162" height="60" rx="14" fill="rgba(234,242,255,0.08)" />
      <rect x="202" y="436" width="162" height="60" rx="14" fill="rgba(234,242,255,0.08)" />
    </g>

    <path
      d="M470 240c70-70 165-80 260-10M470 360c110-40 200-26 284 42M470 470c70-16 120-4 180 42"
      stroke="url(#acc)"
      stroke-width="6"
      stroke-linecap="round"
      opacity="0.9"
    />
    <circle cx="470" cy="240" r="10" fill="#55D3FF" />
    <circle cx="730" cy="230" r="10" fill="#1B76FF" />
    <circle cx="470" cy="360" r="10" fill="#55D3FF" />
    <circle cx="754" cy="402" r="10" fill="#1B76FF" />
    <circle cx="470" cy="470" r="10" fill="#55D3FF" />
    <circle cx="650" cy="512" r="10" fill="#1B76FF" />

    <g opacity="0.92">
      <rect x="858" y="198" width="144" height="46" rx="14" fill="rgba(234,242,255,0.09)" />
      <rect x="858" y="262" width="144" height="46" rx="14" fill="rgba(234,242,255,0.09)" />
      <rect x="858" y="326" width="144" height="46" rx="14" fill="rgba(234,242,255,0.09)" />
      <rect x="858" y="390" width="144" height="46" rx="14" fill="rgba(234,242,255,0.09)" />
    </g>

    <rect x="170" y="136" width="260" height="18" rx="9" fill="rgba(234,242,255,0.10)" />
    <rect x="456" y="136" width="260" height="18" rx="9" fill="rgba(234,242,255,0.08)" />
    <rect x="742" y="136" width="260" height="18" rx="9" fill="rgba(234,242,255,0.06)" />
  </g>
</svg>

