<svg xmlns="http://www.w3.org/2000/svg" width="1200" height="750" viewBox="0 0 1200 750" fill="none">
  <defs>
    <linearGradient id="bg" x1="140" y1="60" x2="1060" y2="690" gradientUnits="userSpaceOnUse">
      <stop stop-color="#0B1020" />
      <stop offset="1" stop-color="#101B3B" />
    </linearGradient>
    <linearGradient id="paper" x1="340" y1="180" x2="860" y2="580" gradientUnits="userSpaceOnUse">
      <stop stop-color="#101F46" />
      <stop offset="1" stop-color="#0C1329" />
    </linearGradient>
    <linearGradient id="acc" x1="420" y1="270" x2="820" y2="510" gradientUnits="userSpaceOnUse">
      <stop stop-color="#55D3FF" />
      <stop offset="1" stop-color="#1B76FF" />
    </linearGradient>
    <filter id="soft" x="-20%" y="-20%" width="140%" height="140%">
      <feDropShadow dx="0" dy="24" stdDeviation="26" flood-color="#000" flood-opacity="0.35" />
    </filter>
  </defs>

  <rect width="1200" height="750" rx="36" fill="url(#bg)" />

  <g filter="url(#soft)">
    <path
      d="M330 210c0-22 18-40 40-40h420c22 0 40 18 40 40v340c0 22-18 40-40 40H370c-22 0-40-18-40-40V210z"
      fill="url(#paper)"
      stroke="rgba(234,242,255,0.14)"
    />

    <path
      d="M380 255h340M380 295h420M380 335h390M380 375h400"
      stroke="rgba(234,242,255,0.26)"
      stroke-width="10"
      stroke-linecap="round"
    />

    <rect x="380" y="430" width="440" height="86" rx="22" fill="rgba(234,242,255,0.06)" />
    <path
      d="M408 460h260M408 490h320"
      stroke="rgba(234,242,255,0.22)"
      stroke-width="10"
      stroke-linecap="round"
    />

    <path
      d="M720 210l70 70"
      stroke="rgba(234,242,255,0.18)"
      stroke-width="12"
      stroke-linecap="round"
    />
    <path
      d="M790 280v-36c0-20-16-36-36-36h-36"
      stroke="rgba(234,242,255,0.18)"
      stroke-width="12"
      stroke-linecap="round"
    />

    <g opacity="0.95">
      <rect x="490" y="542" width="220" height="76" rx="22" fill="rgba(234,242,255,0.05)" />
      <path
        d="M540 570h120"
        stroke="url(#acc)"
        stroke-width="12"
        stroke-linecap="round"
      />
      <path
        d="M530 600h140"
        stroke="rgba(234,242,255,0.22)"
        stroke-width="10"
        stroke-linecap="round"
      />
      <circle cx="472" cy="580" r="34" fill="rgba(234,242,255,0.08)" />
      <path
        d="M472 562v36"
        stroke="url(#acc)"
        stroke-width="10"
        stroke-linecap="round"
      />
      <path
        d="M454 580h36"
        stroke="url(#acc)"
        stroke-width="10"
        stroke-linecap="round"
      />
    </g>
  </g>
</svg>

