<svg xmlns="http://www.w3.org/2000/svg" width="1200" height="750" viewBox="0 0 1200 750" fill="none">
  <defs>
    <linearGradient id="bg" x1="120" y1="70" x2="1080" y2="680" gradientUnits="userSpaceOnUse">
      <stop stop-color="#0B1020" />
      <stop offset="1" stop-color="#17202A" />
    </linearGradient>
    <linearGradient id="panel" x1="240" y1="160" x2="960" y2="590" gradientUnits="userSpaceOnUse">
      <stop stop-color="#101F46" />
      <stop offset="1" stop-color="#0C1329" />
    </linearGradient>
    <linearGradient id="acc" x1="360" y1="260" x2="920" y2="520" gradientUnits="userSpaceOnUse">
      <stop stop-color="#B4FF7A" />
      <stop offset="1" stop-color="#55D3FF" />
    </linearGradient>
    <filter id="soft" x="-20%" y="-20%" width="140%" height="140%">
      <feDropShadow dx="0" dy="24" stdDeviation="26" flood-color="#000" flood-opacity="0.35" />
    </filter>
  </defs>

  <rect width="1200" height="750" rx="36" fill="url(#bg)" />

  <g filter="url(#soft)">
    <rect x="150" y="140" width="900" height="470" rx="28" fill="url(#panel)" stroke="rgba(234,242,255,0.14)" />

    <rect x="190" y="190" width="420" height="180" rx="22" fill="rgba(234,242,255,0.06)" />
    <rect x="190" y="400" width="420" height="170" rx="22" fill="rgba(234,242,255,0.06)" />
    <rect x="640" y="190" width="370" height="380" rx="22" fill="rgba(234,242,255,0.05)" />

    <path
      d="M230 236h240M230 276h280M230 316h220"
      stroke="rgba(234,242,255,0.22)"
      stroke-width="10"
      stroke-linecap="round"
    />
    <path d="M230 236h92" stroke="url(#acc)" stroke-width="10" stroke-linecap="round" />

    <path
      d="M230 450h220M230 490h260M230 530h200"
      stroke="rgba(234,242,255,0.22)"
      stroke-width="10"
      stroke-linecap="round"
    />
    <path d="M230 490h120" stroke="url(#acc)" stroke-width="10" stroke-linecap="round" />

    <path
      d="M680 246h240M680 290h280M680 334h250M680 378h270M680 422h230M680 466h260"
      stroke="rgba(234,242,255,0.20)"
      stroke-width="10"
      stroke-linecap="round"
    />
    <path d="M680 290h160" stroke="url(#acc)" stroke-width="10" stroke-linecap="round" />

    <circle cx="558" cy="236" r="10" fill="rgba(180,255,122,0.9)" />
    <circle cx="558" cy="276" r="10" fill="rgba(85,211,255,0.9)" />
    <circle cx="558" cy="316" r="10" fill="rgba(234,242,255,0.5)" />

    <rect x="190" y="206" width="420" height="18" rx="9" fill="rgba(234,242,255,0.08)" />
    <rect x="640" y="206" width="370" height="18" rx="9" fill="rgba(234,242,255,0.06)" />
  </g>
</svg>

