<svg xmlns="http://www.w3.org/2000/svg" width="1200" height="750" viewBox="0 0 1200 750" fill="none">
  <defs>
    <linearGradient id="bg" x1="120" y1="60" x2="1080" y2="690" gradientUnits="userSpaceOnUse">
      <stop stop-color="#0B1020" />
      <stop offset="1" stop-color="#0E2A2A" />
    </linearGradient>
    <linearGradient id="term" x1="220" y1="170" x2="980" y2="600" gradientUnits="userSpaceOnUse">
      <stop stop-color="#0C1329" />
      <stop offset="1" stop-color="#071018" />
    </linearGradient>
    <linearGradient id="acc" x1="320" y1="260" x2="880" y2="520" gradientUnits="userSpaceOnUse">
      <stop stop-color="#55FFB2" />
      <stop offset="1" stop-color="#55D3FF" />
    </linearGradient>
    <filter id="soft" x="-20%" y="-20%" width="140%" height="140%">
      <feDropShadow dx="0" dy="24" stdDeviation="26" flood-color="#000" flood-opacity="0.35" />
    </filter>
  </defs>

  <rect width="1200" height="750" rx="36" fill="url(#bg)" />

  <g filter="url(#soft)">
    <rect x="160" y="140" width="880" height="470" rx="30" fill="url(#term)" stroke="rgba(234,242,255,0.14)" />
    <rect x="160" y="140" width="880" height="74" rx="30" fill="rgba(234,242,255,0.06)" />
    <circle cx="210" cy="177" r="10" fill="rgba(255,93,93,0.9)" />
    <circle cx="242" cy="177" r="10" fill="rgba(255,201,61,0.9)" />
    <circle cx="274" cy="177" r="10" fill="rgba(85,255,178,0.9)" />

    <path
      d="M230 280h60M300 280h260M230 330h44M286 330h360M230 380h54M296 380h300M230 430h44M286 430h340M230 480h54M296 480h260"
      stroke="rgba(234,242,255,0.20)"
      stroke-width="10"
      stroke-linecap="round"
    />

    <path d="M230 280h60" stroke="url(#acc)" stroke-width="10" stroke-linecap="round" />
    <path d="M230 380h54" stroke="url(#acc)" stroke-width="10" stroke-linecap="round" />
    <path d="M230 480h54" stroke="url(#acc)" stroke-width="10" stroke-linecap="round" />

    <rect x="770" y="266" width="220" height="280" rx="22" fill="rgba(234,242,255,0.05)" />
    <path
      d="M804 308h150M804 352h170M804 396h130M804 440h160M804 484h120"
      stroke="rgba(234,242,255,0.22)"
      stroke-width="10"
      stroke-linecap="round"
    />
    <path d="M804 308h92" stroke="url(#acc)" stroke-width="10" stroke-linecap="round" />
  </g>
</svg>

